<svg width="24" height="18" viewBox="0 0 24 18" fill="none" xmlns="http://www.w3.org/2000/svg">
<path d="M15.6482 1C15.6266 1 15.605 0.999995 15.5833 1.02163L12.6407 2.25496C12.6191 2.25496 12.6191 2.27659 12.5974 2.27659L9.6548 4.48355L6.51743 6.88528L4.44028 7.57765L2.79587 7.88058L1.15146 7.85894C1.06491 7.85894 1 7.92384 1 8.01039C1 8.0753 1.02163 8.11857 1.06491 8.14021L1.38946 8.33495C1.4111 8.35658 1.43274 8.35658 1.45437 8.35658L2.42804 8.4864L2.86078 8.98406C2.88242 9.02733 2.92569 9.02732 2.9906 9.02732H3.1637L3.81281 9.43843L4.52683 11.0179L4.50519 11.429C4.50519 11.494 4.52683 11.5372 4.59174 11.5805L4.82975 11.7319L4.67829 12.3594C4.67829 12.3811 4.67829 12.4027 4.67829 12.4243L4.76484 13.0085C4.78647 13.0951 4.85139 13.16 4.93793 13.1384L5.60868 13.0735L5.9116 13.0518L6.30106 13.3115C6.36598 13.3547 6.47416 13.3331 6.51743 13.2682C6.53907 13.2466 6.53907 13.2249 6.53907 13.2033L6.56071 12.9653L6.60398 12.9436L6.73381 13.5711C6.73381 13.5927 6.73381 13.5927 6.73381 13.5927L7.20982 14.6962C7.23146 14.7395 7.25309 14.7611 7.29637 14.7828L8.01039 15.129L8.57295 16.1026C8.59459 16.1459 8.61622 16.1675 8.6595 16.1675L8.85423 16.2325L9.0706 16.3623L9.02732 16.7085C9.00569 16.795 9.0706 16.8816 9.15715 16.8816C9.17879 16.8816 9.20042 16.8816 9.22206 16.8816L10.0659 16.6436C10.0875 16.6436 10.1092 16.6219 10.1308 16.6003L11.0828 15.6915L11.7752 15.1073C11.7969 15.1073 11.7969 15.0857 11.7969 15.064L12.0998 14.6313C12.1431 14.5664 12.1431 14.5015 12.0998 14.4366L12.0132 14.3284L12.2512 13.874L12.8354 12.7489C12.8787 12.6624 12.8354 12.5758 12.7705 12.5325C12.7489 12.5109 12.7273 12.5109 12.684 12.5109L12.9436 12.1214C12.9436 12.0998 12.9653 12.0998 12.9653 12.0782L13.2465 11.1045C13.2465 11.1045 13.2465 11.0828 13.2465 11.0612L13.2898 10.5203C13.2898 10.4337 13.2249 10.3472 13.1384 10.3472H13.1167L12.5109 10.3905L12.3161 9.87117L12.1431 8.01039L12.0349 6.75544C12.0349 6.66889 11.97 6.62562 11.8834 6.60399H11.7969L11.6454 6.06306L12.3594 5.86832C12.4027 5.84669 12.446 5.82505 12.4676 5.76014L12.6623 5.17595L13.1384 4.87303C13.1816 4.87303 13.398 4.87302 13.6793 4.89466C13.8307 4.89466 13.9822 4.89465 14.112 4.91629C14.2418 4.91629 14.3068 4.91629 14.35 4.91629C14.4149 4.91629 14.4366 4.89467 14.4582 4.87303C14.4799 4.85139 14.5015 4.8514 14.5015 4.82976C14.5231 4.80813 14.5448 4.76485 14.5664 4.74321C14.6097 4.6783 14.6529 4.59176 14.6746 4.50521C14.7395 4.35375 14.8044 4.20229 14.8044 4.18065L15.1506 3.68299L15.5833 3.46662C15.6699 3.42335 15.6915 3.3368 15.6482 3.25025C15.605 3.18534 15.5401 3.1637 15.4752 3.1637L15.0641 3.22862C15.0424 3.22862 15.0208 3.25025 14.9991 3.25025L14.1769 3.87773L14.0255 3.81281C13.9822 3.79117 13.9389 3.79117 13.8956 3.81281L13.7875 3.8561L13.8524 3.70462L14.2418 3.68299C14.2851 3.68299 14.3068 3.66136 14.3284 3.66136L14.9991 3.1637C15.0208 3.14206 15.0208 3.14207 15.0424 3.12044C15.0424 3.12044 15.1722 2.94732 15.2804 2.75259C15.3453 2.66604 15.4102 2.55787 15.4535 2.47133C15.4752 2.42805 15.4968 2.38478 15.5184 2.36314C15.5401 2.3415 15.5401 2.31986 15.5617 2.27659C15.5833 2.21168 15.5617 2.16841 15.5617 2.12514C15.5617 2.08187 15.5401 2.01694 15.5401 1.97366H15.6482L15.9512 2.08185C15.9728 2.08185 15.9728 2.08185 15.9944 2.08185L16.6868 2.10348C16.7734 2.10348 16.8383 2.03858 16.8599 1.95203V1.9304L16.8383 1.77893C16.8383 1.71402 16.7734 1.64911 16.7085 1.64911L16.2541 1.54092L16.3406 1.49766C16.4272 1.45439 16.4488 1.36784 16.4272 1.28129C16.4055 1.21638 16.3406 1.19474 16.2757 1.19474L15.9079 1.21637L15.6482 1.04329C15.7132 1.02165 15.6699 1 15.6482 1ZM15.6266 1.34619L15.7781 1.45437C15.6915 1.49765 15.6699 1.5842 15.6915 1.64911L15.4535 1.62748C15.367 1.62748 15.2804 1.69238 15.2804 1.77893C15.2804 1.80056 15.2804 1.80058 15.2804 1.82222C15.2804 1.82222 15.3021 1.90877 15.3237 2.01695C15.3237 2.06023 15.3453 2.12513 15.3453 2.14677C15.3453 2.19005 15.3453 2.23331 15.3453 2.19003C15.3453 2.14676 15.3453 2.19003 15.3237 2.21167C15.3021 2.2333 15.7997 2.3415 15.7781 2.36314C15.7348 2.44969 15.3237 2.49296 15.2588 2.57951C15.1506 2.75261 14.9667 2.97979 14.6638 3.41253L14.2418 3.35844L13.8091 3.38007C13.7442 3.38007 13.7009 3.42335 13.6793 3.46662L13.4196 4.00755C13.3764 4.0941 13.4196 4.18064 13.5062 4.22392C13.5278 4.22392 13.5495 4.24555 13.5711 4.24555H13.7009C13.7226 4.24555 13.7442 4.24556 13.7658 4.22392L14.0255 4.11573L14.1986 4.20229C14.2635 4.22392 14.3068 4.22393 14.3717 4.18065L14.5664 4.02918C14.5664 4.02918 14.5015 4.18064 14.4366 4.35373C14.3933 4.44028 14.3717 4.50519 14.3284 4.5701C14.3284 4.5701 14.3284 4.59174 14.3068 4.59174C14.2635 4.59174 14.2418 4.59174 14.1553 4.59174C14.0255 4.59174 13.874 4.59174 13.7226 4.5701C13.4196 4.5701 13.1384 4.54847 13.1384 4.54847C13.1167 4.54847 13.0734 4.54847 13.0518 4.5701L12.4676 4.91629C12.446 4.93793 12.4027 4.95957 12.4027 5.00284L12.208 5.54377L11.429 5.76014C11.3425 5.78178 11.2992 5.86833 11.3208 5.95488L11.5589 6.75544C11.5805 6.82035 11.6238 6.86362 11.6887 6.86362H11.7319L11.8401 7.98876L12.0349 9.87117C12.0349 9.89281 12.0349 9.89282 12.0349 9.91446L12.2729 10.5636C12.2945 10.6285 12.3594 10.6718 12.4243 10.6718L12.9653 10.6501L12.9436 10.9963L12.684 11.9483L12.0565 12.9003C12.0132 12.9653 12.0349 13.0734 12.0998 13.1167C12.1431 13.1384 12.208 13.16 12.2512 13.1384L12.2945 13.1167L11.9916 13.7009L11.6887 14.2635C11.667 14.3284 11.667 14.3933 11.7103 14.4366L11.7752 14.5231L11.5589 14.8477L10.8665 15.4319L9.93608 16.319L9.35188 16.4921L9.37352 16.2974C9.37352 16.2325 9.35188 16.1675 9.30861 16.1459L8.98405 15.9512C8.96241 15.9512 8.96242 15.9295 8.94078 15.9295L8.76768 15.8646L8.20512 14.891C8.18348 14.8693 8.16185 14.8477 8.14021 14.826L7.42619 14.4799L6.97181 13.4413L6.79871 12.6191C6.77708 12.5325 6.69053 12.4676 6.60398 12.4892C6.58234 12.4892 6.58235 12.4893 6.56071 12.5109L6.23615 12.684C6.19288 12.7056 6.1496 12.7489 6.1496 12.8138V12.8787L5.93323 12.7489C5.9116 12.7273 5.86832 12.7273 5.84669 12.7273L5.50049 12.7489L4.98121 12.8138L4.9163 12.4027L5.06775 11.6887C5.08939 11.6238 5.04612 11.5589 5.00284 11.5156L4.7432 11.3641L4.76484 11.0179C4.76484 10.9963 4.76484 10.9747 4.7432 10.953L3.9859 9.30861C3.96427 9.28698 3.94263 9.26533 3.92099 9.24369L3.18534 8.78932C3.1637 8.76768 3.12043 8.76769 3.09879 8.76769H2.94733L2.51459 8.29168C2.49295 8.27005 2.44968 8.24839 2.42804 8.24839H2.70932H2.73096L4.39701 7.92384H4.41864L6.53907 7.20983C6.56071 7.20983 6.58234 7.18818 6.58234 7.18818L9.74135 4.76484L12.6623 2.57951L15.6266 1.34619Z" fill="#F2F3F5" stroke="#E85B24" stroke-miterlimit="10"/>
<path d="M18.7296 3.25026L18.1238 3.29352C18.0372 3.29352 17.9723 3.38008 17.9723 3.46663C17.9723 3.48827 17.9723 3.48826 17.9723 3.50989L18.1454 3.96429C18.167 4.00756 18.1887 4.05082 18.232 4.05082L18.2752 4.07248L17.6478 4.28885C17.6045 4.31048 17.5612 4.35376 17.5396 4.39703L17.4098 4.87303C17.3881 4.93795 17.1717 4.7214 17.215 4.76468L17.1068 4.89467C17.0203 4.85139 16.9337 4.89467 16.8905 4.98122C16.8688 5.04613 16.8688 5.11105 16.9121 5.15433L17.0419 5.28414L16.8688 5.76015C16.8472 5.80342 16.8688 5.86835 16.8905 5.91162L16.9986 6.0847L16.9121 6.51744C16.9121 6.56072 16.9121 6.58235 16.9337 6.62563L17.2799 7.27474L17.215 7.70748C17.215 7.75075 17.215 7.77239 17.2367 7.81566L17.6478 8.61625L17.6261 8.98406C17.6261 9.0057 17.6261 9.02735 17.6261 9.04899L17.7559 9.46007L17.929 10.1741L17.8641 10.4121C17.8641 10.4554 17.8641 10.477 17.8641 10.5203L17.9723 10.7583L17.8858 10.9747C17.8641 11.0396 17.8858 11.1045 17.929 11.1478L18.3185 11.4723C18.3618 11.5156 18.4051 11.5156 18.4483 11.5156L19.3571 11.6887H19.9629C19.9846 11.6887 20.0062 11.6887 20.0495 11.6887L20.1144 11.6671C20.1144 11.7103 20.0927 11.732 20.0927 11.7752C20.0927 11.7969 20.0927 11.8402 20.1144 11.8834C20.136 11.9267 20.2442 11.9916 20.3091 11.97C20.2875 11.97 20.3091 11.97 20.3307 11.97C20.3524 11.97 20.3957 11.97 20.4389 11.97C20.5255 11.97 20.612 11.9916 20.7202 11.9916C20.8717 12.0132 20.9799 12.0132 21.0231 12.0349L21.3044 12.4892C21.3477 12.5542 21.4559 12.5758 21.5208 12.5325C21.5208 12.5325 21.5424 12.5325 21.5424 12.5109L22.1266 11.9916C22.1915 11.9483 22.8042 11.5805 22.7825 11.5156L21.7372 11.0396L21.7155 11.0179L20.85 10.0875L20.8068 8.65951L21.088 8.05366C21.1097 8.01039 21.1097 7.96711 21.088 7.94548L20.8933 7.31803C20.8933 7.29639 20.8717 7.27474 20.85 7.2531L20.6337 7.0151L20.7419 6.62563C20.7635 6.56072 20.7419 6.47418 20.6769 6.45255L20.5471 6.36599L20.6337 6.0847C20.6553 6.04143 20.6337 5.97653 20.612 5.93325L20.3091 5.56541L20.2658 4.9163C20.2658 4.89466 20.2442 4.85141 20.2442 4.82977L19.5518 3.921C19.5302 3.89936 19.5085 3.87774 19.4869 3.87774L19.1407 3.74792L18.8594 3.33681C18.8378 3.2719 18.7945 3.25026 18.7296 3.25026ZM18.6647 3.57481L18.9243 3.94263C18.946 3.96427 18.9676 3.98592 18.9893 4.00755L19.3354 4.13737L19.9629 4.95959L20.0062 5.6087C20.0062 5.65197 20.0278 5.67361 20.0495 5.69525L20.3307 6.04144L20.2442 6.36599C20.2226 6.4309 20.2442 6.51744 20.3091 6.53907L20.4389 6.62563L20.3307 6.99347C20.3091 7.03675 20.3307 7.10165 20.374 7.14492L20.6337 7.42621L20.8068 7.96714L20.5255 8.55132C20.5255 8.57296 20.5038 8.59461 20.5038 8.61625L20.5471 10.1308C20.5471 10.1741 20.5688 10.2174 20.5904 10.239L21.4775 11.191L21.8453 11.8185L21.4991 12.1214L21.2611 11.7536C21.2395 11.7103 21.1962 11.6887 21.153 11.6887C21.153 11.6887 20.9582 11.6671 20.7635 11.6454C20.6553 11.6454 20.5688 11.6238 20.4822 11.6238C20.4606 11.6238 20.4606 11.6238 20.4389 11.6238C20.4606 11.5372 20.4822 11.4723 20.4822 11.4723C20.5038 11.3858 20.4606 11.2992 20.374 11.2776C20.3524 11.2776 20.3091 11.2776 20.2875 11.2776L20.0062 11.3425L18.9243 11.0828C18.9027 11.0828 18.8811 11.0828 18.8594 11.0828L18.4483 11.1694L18.2103 10.9747L18.2752 10.8016C18.2969 10.7583 18.2969 10.715 18.2752 10.6718L18.167 10.4337L18.232 10.2174C18.232 10.1957 18.232 10.1741 18.232 10.1308L18.0589 9.37354L17.929 8.98406L17.9507 8.59459C17.9507 8.57295 17.9507 8.5297 17.929 8.50806L17.5179 7.72911L17.5828 7.29637C17.5828 7.25309 17.5828 7.23146 17.5612 7.18818L17.215 6.56073L17.3016 6.10633C17.3016 6.06306 17.3016 6.01978 17.2799 5.99815L17.1717 5.8467L17.3232 5.39233C17.3448 5.39233 17.3665 5.39233 17.3665 5.39233H17.3232C16.5659 4.13737 17.4098 4.95958 17.4098 4.87303C17.4098 4.82976 17.7127 4.93793 17.691 4.9163L17.7776 4.6134L18.7296 4.28885C18.8162 4.26721 18.8594 4.15902 18.8378 4.09411C18.8162 4.05083 18.7945 4.00755 18.7512 4.00755L18.3618 3.85611L18.2969 3.66137L18.6647 3.57481Z" fill="#F2F3F5"/>
<path d="M17.4098 4.87303L17.5396 4.39703C17.5612 4.35376 17.6045 4.31048 17.6478 4.28885L18.2752 4.07248L18.232 4.05082C18.1887 4.05082 18.167 4.00756 18.1454 3.96429L17.9723 3.50989C17.9723 3.48826 17.9723 3.48827 17.9723 3.46663C17.9723 3.38008 18.0372 3.29352 18.1238 3.29352L18.7296 3.25026C18.7945 3.25026 18.8378 3.2719 18.8594 3.33681L19.1407 3.74792L19.4869 3.87774C19.5085 3.87774 19.5302 3.89936 19.5518 3.921L20.2442 4.82977C20.2442 4.85141 20.2658 4.89466 20.2658 4.9163L20.3091 5.56541L20.612 5.93325C20.6337 5.97653 20.6553 6.04143 20.6337 6.0847L20.5471 6.36599L20.6769 6.45255C20.7419 6.47418 20.7635 6.56072 20.7419 6.62563L20.6337 7.0151L20.85 7.2531C20.8717 7.27474 20.8933 7.29639 20.8933 7.31803L21.088 7.94548C21.1097 7.96712 21.1097 8.01039 21.088 8.05366L20.8068 8.65951L20.85 10.0875L21.7155 11.0179L21.7372 11.0396L22.7825 11.5156C22.8042 11.5805 22.1915 11.9483 22.1266 11.9916L21.5424 12.5109C21.5424 12.5325 21.5208 12.5325 21.5208 12.5325C21.4559 12.5758 21.3477 12.5542 21.3044 12.4892L21.0231 12.0349C20.9799 12.0132 20.8717 12.0132 20.7202 11.9916C20.612 11.9916 20.5255 11.97 20.4389 11.97C20.3957 11.97 20.3524 11.97 20.3307 11.97C20.3091 11.97 20.2875 11.97 20.3091 11.97C20.2442 11.9916 20.136 11.9267 20.1144 11.8834C20.0927 11.8402 20.0927 11.7969 20.0927 11.7752C20.0927 11.732 20.1144 11.7103 20.1144 11.6671L20.0495 11.6887C20.0062 11.6887 19.9846 11.6887 19.9629 11.6887H19.3571L18.4483 11.5156C18.4051 11.5156 18.3618 11.5156 18.3185 11.4723L17.929 11.1478C17.8858 11.1045 17.8641 11.0396 17.8858 10.9747L17.9723 10.7583L17.8641 10.5203C17.8641 10.477 17.8641 10.4554 17.8641 10.4121L17.929 10.1741L17.7559 9.46007L17.6261 9.04899C17.6261 9.02735 17.6261 9.0057 17.6261 8.98406L17.6478 8.61625L17.2367 7.81566C17.215 7.77239 17.215 7.75075 17.215 7.70748L17.2799 7.27474L16.9337 6.62563C16.9121 6.58235 16.9121 6.56072 16.9121 6.51744L16.9986 6.0847L16.8905 5.91162C16.8688 5.86835 16.8472 5.80342 16.8688 5.76015L17.0419 5.28414L16.9121 5.15433C16.8688 5.11105 16.8688 5.04613 16.8905 4.98122C16.9337 4.89467 17.0203 4.85139 17.1068 4.89467L17.215 4.76468C17.1717 4.7214 17.3881 4.93795 17.4098 4.87303ZM17.4098 4.87303C17.4098 4.95958 16.5659 4.13737 17.3232 5.39233M17.4098 4.87303C17.4098 4.82976 17.7127 4.93793 17.691 4.9163L17.7776 4.6134L18.7296 4.28885C18.8162 4.26721 18.8594 4.15902 18.8378 4.09411C18.8162 4.05083 18.7945 4.00755 18.7512 4.00755L18.3618 3.85611L18.2969 3.66137L18.6647 3.57481L18.9243 3.94263C18.946 3.96427 18.9676 3.98592 18.9893 4.00755L19.3354 4.13737L19.9629 4.95959L20.0062 5.6087C20.0062 5.65197 20.0278 5.67361 20.0495 5.69525L20.3307 6.04144L20.2442 6.36599C20.2226 6.4309 20.2442 6.51744 20.3091 6.53907L20.4389 6.62563L20.3307 6.99347C20.3091 7.03675 20.3307 7.10165 20.374 7.14492L20.6337 7.42621L20.8068 7.96714L20.5255 8.55132C20.5255 8.57296 20.5038 8.59461 20.5038 8.61625L20.5471 10.1308C20.5471 10.1741 20.5688 10.2174 20.5904 10.239L21.4775 11.191L21.8453 11.8185L21.4991 12.1214L21.2611 11.7536C21.2395 11.7103 21.1962 11.6887 21.153 11.6887C21.153 11.6887 20.9582 11.6671 20.7635 11.6454C20.6553 11.6454 20.5688 11.6238 20.4822 11.6238C20.4606 11.6238 20.4606 11.6238 20.4389 11.6238C20.4606 11.5372 20.4822 11.4723 20.4822 11.4723C20.5038 11.3858 20.4606 11.2992 20.374 11.2776C20.3524 11.2776 20.3091 11.2776 20.2875 11.2776L20.0062 11.3425L18.9243 11.0828C18.9027 11.0828 18.8811 11.0828 18.8594 11.0828L18.4483 11.1694L18.2103 10.9747L18.2752 10.8016C18.2969 10.7583 18.2969 10.715 18.2752 10.6718L18.167 10.4337L18.232 10.2174C18.232 10.1957 18.232 10.1741 18.232 10.1308L18.0589 9.37354L17.929 8.98406L17.9507 8.59459C17.9507 8.57295 17.9507 8.5297 17.929 8.50806L17.5179 7.72911L17.5828 7.29637C17.5828 7.25309 17.5828 7.23146 17.5612 7.18818L17.215 6.56073L17.3016 6.10633C17.3016 6.06306 17.3016 6.01978 17.2799 5.99815L17.1717 5.8467L17.3232 5.39233M17.3232 5.39233C17.3448 5.39233 17.3665 5.39233 17.3665 5.39233H17.3232Z" stroke="#E85B24" stroke-miterlimit="10"/>
</svg>
