<svg width="229" height="238" viewBox="0 0 229 238" fill="none" xmlns="http://www.w3.org/2000/svg">
<g clip-path="url(#clip0_263_509)">
<path d="M203.452 181.125L203.448 181.232L208.824 238H169.592L164.507 203.135L162.268 237.106L121.98 236.659L126.26 192.058L129.899 171.385V171.381L130.445 168.27H202.382L202.476 169.396L203.452 181.125Z" fill="#2F2E41"/>
<path d="M99.7731 214.033C103.928 214.789 108.261 210.117 109.45 203.597C109.971 200.743 109.803 198.008 109.101 195.772L109.738 192.014L120.429 141.455C120.429 141.455 140.117 102.131 140.117 95.3037C140.116 88.4769 134.421 85.1289 134.421 85.1289L126.715 85.2008L102.55 144.135L98.1981 187.686L97.494 193.66C96.0474 195.506 94.9243 198.006 94.4038 200.86C93.2142 207.38 95.6181 213.277 99.7731 214.033Z" fill="#FFB6B6"/>
<path d="M178.16 60.7677L170.998 44.229L147.72 48.2519L146.153 67.7101L178.16 60.7677Z" fill="#FFB6B6"/>
<path opacity="0.1" d="M178.16 60.7677L170.998 44.229L147.72 48.2519L146.153 67.7101L178.16 60.7677Z" fill="black"/>
<path d="M228.744 95.186C228.744 95.186 212.181 64.3435 209.048 61.2146C207.653 59.8217 205.46 59.8023 203.455 60.2083L180.398 52.2748L172.583 47.8901L172.068 56.2319L146.411 60.8303C146.554 55.7432 147.272 53.8082 147.272 53.8082L137.872 64.7905L119.518 73.7304L119.528 73.8109C118.181 74.2803 116.904 75.0836 115.937 76.4123C112.356 81.3292 102.507 141.226 102.507 141.226L123.547 145.696L126.41 127.754L128.471 143.908L130.038 174.08C130.038 174.08 158.687 198.665 172.564 189.725C186.441 180.785 203.452 181.232 203.452 181.232L203.877 167.246C204.179 166.764 204.347 166.481 204.347 166.481L203.9 116.872V103.671C207.31 108.416 211.425 112.496 216.21 114.407C231.878 120.665 228.744 95.186 228.744 95.186Z" fill="#E6E6E6"/>
<path d="M156.926 51.1618C168.753 51.1618 178.34 41.5882 178.34 29.7784C178.34 17.9687 168.753 8.39502 156.926 8.39502C145.099 8.39502 135.511 17.9687 135.511 29.7784C135.511 41.5882 145.099 51.1618 156.926 51.1618Z" fill="#FFB6B6"/>
<path d="M172.288 35.8217C172.288 35.8217 174.151 29.3137 178.34 29.7786C182.53 30.2434 183.461 26.5246 182.53 24.6651C181.599 22.8057 179.737 13.5086 179.737 13.5086C179.737 13.5086 180.668 7.00057 175.082 6.07086C169.495 5.14115 167.633 4.21144 166.702 2.35201C165.771 0.492582 151.805 -1.36684 147.149 1.4223C142.494 4.21144 138.77 9.56278 135.511 11.0708C132.252 12.5789 129.459 15.368 131.321 20.0166C133.183 24.6651 135.884 33.7567 135.884 33.7567C135.884 33.7567 140.632 32.1028 141.563 34.892C142.494 37.6811 138.77 33.9623 143.425 26.5245C148.08 19.0868 148.08 11.6491 155.529 14.4383C162.978 17.2274 171.357 16.2977 170.426 21.876C169.495 27.4543 172.288 35.8217 172.288 35.8217Z" fill="#2F2E41"/>
<path d="M170.979 205.341H8.34112C3.74174 205.341 0 201.604 0 197.012V110.746C0 106.154 3.74174 102.417 8.34112 102.417H170.979C175.578 102.417 179.32 106.154 179.32 110.746V197.012C179.32 201.604 175.578 205.341 170.979 205.341Z" fill="white"/>
<path d="M170.979 205.341H8.34112C3.74174 205.341 0 201.604 0 197.012V110.746C0 106.154 3.74174 102.417 8.34112 102.417H170.979C175.578 102.417 179.32 106.154 179.32 110.746V197.012C179.32 201.604 175.578 205.341 170.979 205.341ZM8.34112 103.808C4.50995 103.808 1.39291 106.92 1.39291 110.746V197.012C1.39291 200.838 4.50995 203.95 8.34112 203.95H170.979C174.81 203.95 177.927 200.838 177.927 197.012V110.746C177.927 106.92 174.81 103.808 170.979 103.808H8.34112Z" fill="#3F3D56"/>
<path d="M158.426 112.848C159.58 112.848 160.516 111.914 160.516 110.762C160.516 109.61 159.58 108.676 158.426 108.676C157.272 108.676 156.337 109.61 156.337 110.762C156.337 111.914 157.272 112.848 158.426 112.848Z" fill="#3F3D56"/>
<path d="M163.998 112.848C165.152 112.848 166.087 111.914 166.087 110.762C166.087 109.61 165.152 108.676 163.998 108.676C162.844 108.676 161.909 109.61 161.909 110.762C161.909 111.914 162.844 112.848 163.998 112.848Z" fill="#3F3D56"/>
<path d="M169.57 112.848C170.724 112.848 171.659 111.914 171.659 110.762C171.659 109.61 170.724 108.676 169.57 108.676C168.416 108.676 167.48 109.61 167.48 110.762C167.48 111.914 168.416 112.848 169.57 112.848Z" fill="#3F3D56"/>
<path d="M11.8397 144.491C11.2637 144.491 10.795 144.959 10.795 145.534C10.795 145.814 10.9035 146.074 11.1004 146.265C11.299 146.468 11.5592 146.577 11.8397 146.577H168.177C168.753 146.577 169.221 146.109 169.221 145.534C169.221 145.253 169.113 144.994 168.916 144.802C168.717 144.599 168.457 144.491 168.177 144.491H11.8397Z" fill="#E6E6E6"/>
<path d="M148.676 144.143V146.925H11.8397C11.4566 146.925 11.1084 146.772 10.8577 146.514C10.6 146.264 10.4468 145.916 10.4468 145.534C10.4468 144.769 11.0736 144.143 11.8397 144.143H148.676Z" fill="#34A08D"/>
<path d="M166.436 138.927H152.507C150.97 138.927 149.721 137.68 149.721 136.146C149.721 134.611 150.97 133.364 152.507 133.364H166.436C167.972 133.364 169.221 134.611 169.221 136.146C169.221 137.68 167.972 138.927 166.436 138.927Z" fill="#E6E6E6"/>
<path d="M75.2002 124.323H12.8844C11.3484 124.323 10.0986 123.076 10.0986 121.542C10.0986 120.007 11.3484 118.76 12.8844 118.76H75.2002C76.7363 118.76 77.986 120.007 77.986 121.542C77.986 123.076 76.7363 124.323 75.2002 124.323Z" fill="#E6E6E6"/>
<path d="M11.8397 175.785C11.2637 175.785 10.795 176.253 10.795 176.828C10.795 177.109 10.9035 177.368 11.1004 177.56C11.299 177.763 11.5592 177.871 11.8397 177.871H168.177C168.753 177.871 169.221 177.404 169.221 176.828C169.221 176.548 169.113 176.288 168.916 176.097C168.717 175.894 168.457 175.785 168.177 175.785H11.8397Z" fill="#E6E6E6"/>
<path d="M95.0491 175.438V178.219H11.8397C11.4566 178.219 11.1084 178.066 10.8577 177.809C10.6 177.559 10.4468 177.211 10.4468 176.828C10.4468 176.063 11.0736 175.438 11.8397 175.438H95.0491Z" fill="#34A08D"/>
<path d="M166.436 170.222H152.507C150.97 170.222 149.721 168.974 149.721 167.44C149.721 165.906 150.97 164.658 152.507 164.658H166.436C167.972 164.658 169.221 165.906 169.221 167.44C169.221 168.974 167.972 170.222 166.436 170.222Z" fill="#E6E6E6"/>
<path d="M190.82 52.8078C202.867 52.8078 212.633 43.2619 212.633 31.4864C212.633 19.711 202.867 10.165 190.82 10.165C178.774 10.165 169.008 19.711 169.008 31.4864C169.008 43.2619 178.774 52.8078 190.82 52.8078Z" fill="#34A08D"/>
<path d="M198.224 20.7316C195.32 26.0115 192.416 31.2915 189.512 36.5715C187.661 33.3062 185.821 30.0352 183.965 26.7725C183.324 25.6457 181.582 26.6592 182.224 27.7888C184.375 31.571 186.503 35.3658 188.654 39.148C189.022 39.7947 190.031 39.8097 190.395 39.148C193.585 33.348 196.775 27.5479 199.965 21.7479C200.59 20.6114 198.849 19.5942 198.224 20.7316Z" fill="white"/>
<path d="M220.931 87.6874L199.199 77.3067C199.199 77.3067 198.327 70.3588 194.251 67.8806C193.558 66.2301 192.761 64.4168 192.037 62.9801C190.246 59.427 192.932 52.7222 190.694 52.7222C188.456 52.7222 185.147 59.7737 185.322 61.662C185.457 63.1116 186.657 65.6423 186.904 67.8577C184.175 68.8856 181.973 70.6473 180.526 72.0501C179.273 73.264 178.807 75.0751 179.297 76.7483C180.716 81.5968 184.262 91.6104 189.351 91.6104C196.066 91.6104 197.856 90.2695 197.856 90.2695C197.856 90.2695 211.733 107.702 222.029 109.043C232.325 110.384 220.931 87.6874 220.931 87.6874Z" fill="#FFB6B6"/>
</g>
<defs>
<clipPath id="clip0_263_509">
<rect width="229" height="238" fill="white"/>
</clipPath>
</defs>
</svg>
