<svg width="33" height="32" viewBox="0 0 33 32" fill="none" xmlns="http://www.w3.org/2000/svg">
<path d="M21.7678 19.552C26.4276 19.552 30.2061 15.7946 30.2061 11.16C30.2061 6.52662 26.4276 2.76929 21.7678 2.76929C17.108 2.76929 13.3334 6.52662 13.3334 11.16C13.3334 13.3066 14.3134 14.868 14.3134 14.868L4.10994 25.0146C3.65197 25.4706 3.01109 26.6546 4.10994 27.748L5.28758 28.9186C5.74554 29.3093 6.89647 29.856 7.83778 28.9186L9.21302 27.5533C10.5856 28.9186 12.1558 28.1386 12.7446 27.3573C13.7246 25.992 12.5483 24.6253 12.5483 24.6253L12.9409 24.2346C14.8235 26.1093 16.4724 25.016 17.0612 24.2346C18.0426 22.8693 17.0612 21.5026 17.0612 21.5026C16.6687 20.7226 15.8836 20.7226 16.865 19.7466L18.0426 18.576C18.9839 19.356 20.9199 19.552 21.7704 19.552H21.7678Z" stroke="#272829" stroke-width="2" stroke-linejoin="round"/>
<path d="M24.7119 11.1614C24.7101 11.9391 24.3992 12.6843 23.8473 13.2332C23.2955 13.782 22.548 14.0895 21.7692 14.0881C20.9903 14.0895 20.2428 13.782 19.691 13.2332C19.1392 12.6843 18.8282 11.9391 18.8264 11.1614C18.8271 10.7762 18.9038 10.3949 19.0521 10.0393C19.2003 9.68365 19.4173 9.36067 19.6905 9.08878C19.9638 8.81689 20.288 8.60141 20.6447 8.45465C21.0013 8.30788 21.3834 8.2327 21.7692 8.2334C22.1549 8.2327 22.537 8.30788 22.8937 8.45465C23.2503 8.60141 23.5745 8.81689 23.8478 9.08878C24.1211 9.36067 24.338 9.68365 24.4863 10.0393C24.6345 10.3949 24.7112 10.7762 24.7119 11.1614Z" stroke="#E85B24" stroke-width="2"/>
</svg>
