<svg width="33" height="33" viewBox="0 0 33 33" fill="none" xmlns="http://www.w3.org/2000/svg">
<path d="M16.9202 3.11157C17.4209 3.11157 17.9149 3.13824 18.4023 3.1929C18.5766 3.21215 18.7453 3.2655 18.899 3.34989C19.0526 3.43428 19.1881 3.54806 19.2977 3.68473C19.4073 3.8214 19.4889 3.97829 19.5378 4.14644C19.5866 4.31458 19.6019 4.4907 19.5826 4.66472C19.5633 4.83875 19.5099 5.00727 19.4254 5.16068C19.3408 5.31409 19.2269 5.44937 19.09 5.55881C18.9531 5.66825 18.796 5.74969 18.6276 5.7985C18.4592 5.8473 18.2828 5.86251 18.1085 5.84325C15.9082 5.59747 13.6858 6.04048 11.7486 7.111C9.81146 8.18151 8.25534 9.82663 7.29549 11.8188C6.33564 13.811 6.0195 16.0517 6.3908 18.2311C6.7621 20.4105 7.80249 22.4209 9.36806 23.9841C10.9336 25.5473 12.947 26.5861 15.1297 26.9569C17.3124 27.3276 19.5565 27.012 21.5517 26.0536C23.5469 25.0952 25.1945 23.5414 26.2666 21.6071C27.3388 19.6729 27.7824 17.4538 27.5363 15.2568C27.517 15.0828 27.5322 14.9067 27.5811 14.7385C27.63 14.5704 27.7116 14.4135 27.8212 14.2768C28.0425 14.0008 28.3646 13.8239 28.7166 13.785C29.0686 13.7461 29.4216 13.8484 29.6981 14.0694C29.8349 14.1788 29.9489 14.3141 30.0334 14.4675C30.1179 14.6209 30.1714 14.7895 30.1906 14.9635C30.244 15.4501 30.2721 15.9434 30.2721 16.4433C30.2721 23.8064 24.2945 29.7751 16.9202 29.7751C9.54599 29.7751 3.56836 23.8064 3.56836 16.4433C3.56836 9.0802 9.54599 3.11157 16.9202 3.11157ZM25.6043 3.28089C25.848 3.38178 26.0563 3.5525 26.2029 3.77151C26.3495 3.99051 26.4279 4.24798 26.4281 4.51141V6.95112H28.8701C29.1342 6.95117 29.3923 7.02939 29.6118 7.17589C29.8313 7.32238 30.0024 7.53058 30.1034 7.77415C30.2045 8.01772 30.2309 8.28573 30.1794 8.5443C30.1279 8.80288 30.0008 9.0404 29.8141 9.22685L25.0916 13.937C24.8412 14.187 24.5017 14.3275 24.1476 14.3276H20.9258L18.4851 16.766C18.2345 17.0161 17.8947 17.1566 17.5404 17.1566C17.1861 17.1566 16.8463 17.0161 16.5958 16.766C16.3452 16.5158 16.2045 16.1765 16.2045 15.8227C16.2045 15.469 16.3452 15.1297 16.5958 14.8795L19.0378 12.4438V9.22551C19.0379 8.87196 19.1786 8.53292 19.429 8.28296L24.1489 3.56885C24.3356 3.3823 24.5736 3.25523 24.8326 3.20374C25.0917 3.15224 25.3602 3.17862 25.6043 3.27955M23.7577 7.72836L21.7082 9.77745V11.6626H23.5962L25.647 9.61613H25.0929C24.7388 9.61613 24.3992 9.47567 24.1488 9.22566C23.8984 8.97564 23.7577 8.63654 23.7577 8.28296V7.72836Z" fill="#272829"/>
<path d="M16.904 10.8147C16.992 11.157 16.9403 11.5201 16.7603 11.8243C16.5803 12.1286 16.2866 12.349 15.944 12.4372C15.0025 12.6834 14.1829 13.2633 13.6381 14.0686C13.0934 14.8739 12.8607 15.8496 12.9835 16.8136C13.1062 17.7776 13.5761 18.6641 14.3053 19.3076C15.0346 19.9512 15.9734 20.3078 16.9467 20.3109C17.8349 20.3108 18.6979 20.0162 19.4002 19.4733C20.1025 18.9303 20.6042 18.1698 20.8267 17.3113C20.9214 16.9758 21.1438 16.6906 21.4465 16.5169C21.7491 16.3432 22.1078 16.2948 22.4458 16.3819C22.7838 16.4691 23.0741 16.6849 23.2547 16.9832C23.4352 17.2815 23.4916 17.6386 23.4117 17.9779C23.0021 19.5456 22.0349 20.9108 20.6908 21.8184C19.3466 22.7261 17.7176 23.1141 16.1079 22.9099C14.4982 22.7058 13.0179 21.9235 11.9437 20.7092C10.8696 19.4949 10.2749 17.9316 10.2708 16.3114C10.271 14.8335 10.7629 13.3976 11.6691 12.2292C12.5754 11.0608 13.8447 10.2261 15.2777 9.85616C15.4475 9.81245 15.6243 9.80258 15.7979 9.8271C15.9716 9.85163 16.1387 9.91006 16.2897 9.99907C16.4407 10.0881 16.5727 10.2059 16.6781 10.3459C16.7835 10.4858 16.8602 10.6451 16.904 10.8147Z" fill="#E85B24"/>
</svg>
