<svg width="33" height="32" viewBox="0 0 33 32" fill="none" xmlns="http://www.w3.org/2000/svg">
<g clip-path="url(#clip0_156_1293)">
<path d="M32.9541 16.1025C32.9541 16.1025 26.9458 5.10254 16.9319 5.10254C6.918 5.10254 0.909668 16.1025 0.909668 16.1025C0.909668 16.1025 6.918 27.1025 16.9319 27.1025C26.9458 27.1025 32.9541 16.1025 32.9541 16.1025ZM3.25893 16.1025C4.22583 14.6317 5.33974 13.2627 6.58354 12.0165C9.16111 9.43854 12.686 7.10254 16.9319 7.10254C21.1778 7.10254 24.7007 9.43854 27.2822 12.0165C28.526 13.2627 29.64 14.6317 30.6069 16.1025C30.492 16.2759 30.3619 16.4679 30.2163 16.6785C29.5454 17.6385 28.554 18.9185 27.2822 20.1885C24.7007 22.7665 21.1758 25.1025 16.9319 25.1025C12.688 25.1025 9.16312 22.7665 6.58153 20.1885C5.33774 18.9424 4.22583 17.5734 3.25893 16.1025Z" fill="#272829"/>
<path d="M16.9318 11.1025C15.6039 11.1025 14.3304 11.6293 13.3914 12.567C12.4524 13.5047 11.9249 14.7765 11.9249 16.1025C11.9249 17.4286 12.4524 18.7004 13.3914 19.6381C14.3304 20.5758 15.6039 21.1025 16.9318 21.1025C18.2598 21.1025 19.5333 20.5758 20.4723 19.6381C21.4113 18.7004 21.9388 17.4286 21.9388 16.1025C21.9388 14.7765 21.4113 13.5047 20.4723 12.567C19.5333 11.6293 18.2598 11.1025 16.9318 11.1025ZM9.92212 16.1025C9.92212 14.246 10.6606 12.4655 11.9752 11.1528C13.2898 9.84004 15.0727 9.10254 16.9318 9.10254C18.7909 9.10254 20.5739 9.84004 21.8885 11.1528C23.203 12.4655 23.9416 14.246 23.9416 16.1025C23.9416 17.9591 23.203 19.7395 21.8885 21.0523C20.5739 22.365 18.7909 23.1025 16.9318 23.1025C15.0727 23.1025 13.2898 22.365 11.9752 21.0523C10.6606 19.7395 9.92212 17.9591 9.92212 16.1025Z" fill="#E85B24"/>
<path d="M16.9318 12.1025C17.0493 12.1025 17.1655 12.1079 17.2803 12.1172C16.9904 12.625 16.8756 13.2139 16.9536 13.7932C17.0316 14.3725 17.2981 14.9102 17.7119 15.3235C18.1258 15.7368 18.6643 16.0029 19.2444 16.0808C19.8245 16.1586 20.4142 16.044 20.9227 15.7545C20.9929 16.5574 20.8186 17.3628 20.4226 18.0651C20.0267 18.7673 19.4275 19.3338 18.7036 19.6902C17.9798 20.0466 17.165 20.1763 16.366 20.0624C15.567 19.9484 14.8212 19.5961 14.2262 19.0516C13.6311 18.5071 13.2147 17.7958 13.0314 17.0109C12.8481 16.226 12.9066 15.4042 13.199 14.653C13.4915 13.9018 14.0044 13.2564 14.6705 12.8013C15.3365 12.3462 16.1247 12.1026 16.9318 12.1025Z" fill="#272829"/>
</g>
<defs>
<clipPath id="clip0_156_1293">
<rect width="32.0444" height="32" fill="white" transform="translate(0.909668)"/>
</clipPath>
</defs>
</svg>
